<svg width="150" height="48" viewBox="0 0 150 48" fill="none" xmlns="http://www.w3.org/2000/svg">
<path d="M5.18147 2.00077C4.7359 2.00901 4.28219 2.08041 3.82062 2.22716C1.94811 2.82274 -0.114836 7.66155 3.1188 12.5635C3.99203 13.8872 -0.763911 16.1602 0.107047 18.7021C1.2801 22.1257 9.52376 20.5268 10.7233 22.5662C11.3332 23.6032 3.1688 27.0779 6.02023 30.0385C9.61419 33.7701 13.2233 31.33 19.1412 32.2231C21.4789 32.5758 16.6452 38.0217 20.1859 40.1414C23.969 42.4061 31.4308 40.3232 35.418 38.2873C34.4663 37.1847 33.5133 36.0832 32.559 34.9827C29.3913 35.9321 25.7589 36.4313 22.5174 36.2336C25.9353 35.628 28.6841 34.9295 31.495 33.7596C29.4527 31.4127 27.3945 29.0708 25.3056 26.7585C21.8163 27.434 15.4774 28.4434 9.51031 28.0291C10.3465 27.9086 20.0004 26.6617 24.1827 25.5226C23.4188 24.6847 22.6499 23.8511 21.8761 23.0218C20.998 21.9362 20.1161 20.8533 19.2306 19.7733C18.7453 19.1823 18.2587 18.5921 17.771 18.0029L17.7601 18.0631C14.8067 18.2279 9.22251 18.3425 4.22745 17.0828C4.93553 17.0846 13.033 17.2398 16.7308 16.7498C15.1541 14.855 13.6298 13.0483 12.3298 11.5506C11.6636 10.783 11.0616 10.1033 10.5295 9.51751L10.5342 9.51238C12.9397 11.6431 15.2817 13.8645 17.5732 16.1498C19.0477 13.9295 20.6918 10.9636 21.5188 8.76639C21.6579 11.4544 20.0071 14.8687 18.9064 17.4928C21.033 19.6541 23.1166 21.8677 25.1684 24.1102C27.0736 21.9153 29.3452 18.5886 30.3645 16.4474C29.9898 18.8318 27.3498 22.598 26.1091 25.1423C28.49 27.7668 30.8289 30.4269 33.1421 33.0883C34.4211 31.4881 35.8212 29.4004 36.5344 27.8432C36.6594 29.8271 35.1512 32.3574 34.1772 34.277L34.1724 34.2757C35.0838 35.3276 35.9917 36.3789 36.8966 37.4274C37.1822 37.2333 37.4273 37.0454 37.6146 36.8694C40.5938 34.0707 41.0484 29.5735 39.3042 26.2037C38.1187 23.9132 32.6661 25.4115 31.9872 24.0208C31.1285 22.2618 36.8703 17.0448 34.6527 14.4177C33.0943 12.5714 27.5463 14.5992 26.5781 12.9363C25.0304 10.2779 29.2421 6.0859 24.5172 3.85114C22.0106 2.66565 20.1234 4.34081 16.1515 7.88849C14.1405 9.68485 10.2678 2.10614 5.372 2.00114C5.3085 1.99975 5.24497 1.99963 5.18147 2.00077ZM37.89 38.8347L36.5659 39.8724L40.0554 44.0325L41.3793 42.9948L37.89 38.8347Z" fill="#5E9058"/>
<path d="M57.4824 4.89062H71.1543V6.45312H69.5918V15.4375H71.1543V17H64.9043V15.4375H66.4668V6.45312H62.1699V15.4375H63.7324V17H57.4824V15.4375H59.0449V6.45312H57.4824V4.89062ZM80.5293 11.1162V15.4375H81.5059V17H78.4639L78.0293 15.9844C77.6973 16.4596 77.3115 16.7852 76.8721 16.9609C76.4359 17.1367 75.8255 17.2246 75.041 17.2246C74.6341 17.2246 74.2549 17.153 73.9033 17.0098C73.555 16.8698 73.2572 16.6777 73.0098 16.4336C72.7656 16.1895 72.5736 15.8965 72.4336 15.5547C72.2969 15.2129 72.2285 14.8467 72.2285 14.4561C72.2285 13.7822 72.4922 13.224 73.0195 12.7812C73.5469 12.3353 74.2207 12.1123 75.041 12.1123C75.7018 12.1123 76.2487 12.1758 76.6816 12.3027C77.1146 12.4264 77.4857 12.625 77.7949 12.8984V10.8281C77.7949 10.5352 77.7542 10.291 77.6729 10.0957C77.5947 9.89714 77.4759 9.74577 77.3164 9.6416C77.1569 9.53418 76.9779 9.45931 76.7793 9.41699C76.5807 9.37467 76.3431 9.35352 76.0664 9.35352C75.8451 9.35352 75.6449 9.40072 75.4658 9.49512C75.5667 9.70671 75.6172 9.92969 75.6172 10.1641C75.6172 10.597 75.4642 10.9665 75.1582 11.2725C74.8555 11.5752 74.4876 11.7266 74.0547 11.7266C73.6217 11.7266 73.2523 11.5752 72.9463 11.2725C72.6436 10.9665 72.4922 10.597 72.4922 10.1641C72.4922 9.94271 72.5345 9.73438 72.6191 9.53906C72.707 9.34375 72.8275 9.17285 72.9805 9.02637C73.1107 8.88965 73.2458 8.76758 73.3857 8.66016C73.5257 8.54948 73.7015 8.44043 73.9131 8.33301C74.1279 8.22233 74.3607 8.13118 74.6113 8.05957C74.862 7.98796 75.1615 7.93099 75.5098 7.88867C75.8613 7.8431 76.2454 7.82031 76.6621 7.82031C77.2025 7.82031 77.7103 7.90007 78.1855 8.05957C78.6608 8.21908 79.071 8.44043 79.416 8.72363C79.7611 9.00684 80.0329 9.35514 80.2314 9.76855C80.43 10.182 80.5293 10.6312 80.5293 11.1162ZM77.7949 14.832V14.1582C77.5931 13.9661 77.3652 13.805 77.1113 13.6748C76.8607 13.5413 76.6279 13.4746 76.4131 13.4746C75.9508 13.4746 75.6253 13.5527 75.4365 13.709C75.2477 13.862 75.1533 14.111 75.1533 14.4561C75.1533 14.8695 75.2347 15.1738 75.3975 15.3691C75.5602 15.5645 75.863 15.6621 76.3057 15.6621C76.5563 15.6621 76.8167 15.5824 77.0869 15.4229C77.3604 15.2601 77.5964 15.0632 77.7949 14.832ZM88.9424 7.79102C89.7041 7.79102 90.3503 7.98633 90.8809 8.37695C91.4115 8.76758 91.8053 9.31283 92.0625 10.0127C92.3229 10.7126 92.4531 11.5459 92.4531 12.5127C92.4531 13.2191 92.3604 13.8652 92.1748 14.4512C91.9925 15.0371 91.7354 15.5319 91.4033 15.9355C91.0745 16.3359 90.6758 16.6468 90.207 16.8682C89.7415 17.0863 89.2305 17.1953 88.6738 17.1953C88.3939 17.1953 88.1302 17.1693 87.8828 17.1172C87.6354 17.0684 87.4238 17.0065 87.248 16.9316C87.0755 16.8568 86.9111 16.764 86.7549 16.6533C86.5986 16.5426 86.4717 16.4385 86.374 16.3408C86.2796 16.2432 86.1868 16.1341 86.0957 16.0137V18.5625H87.0723V20.125H82.3848V18.5625H83.3613V9.57812H82.3848V8.01562H85.2852L85.876 9.15332C86.0029 8.97428 86.1478 8.81152 86.3105 8.66504C86.9551 8.08236 87.8324 7.79102 88.9424 7.79102ZM86.0957 14.3584C86.4668 15.042 86.9714 15.3838 87.6094 15.3838C88.2539 15.3838 88.7324 15.1315 89.0449 14.627C89.3607 14.1224 89.5186 13.4062 89.5186 12.4785C89.5186 12.0423 89.4665 11.6403 89.3623 11.2725C89.2614 10.9014 89.1247 10.5938 88.9521 10.3496C88.7829 10.1055 88.5876 9.91667 88.3662 9.7832C88.1449 9.64648 87.9137 9.57812 87.6729 9.57812C87.3473 9.57812 87.0576 9.66927 86.8037 9.85156C86.5531 10.0306 86.3171 10.2975 86.0957 10.6523V14.3584ZM96.3936 8.18652C96.9665 7.96191 97.5736 7.84961 98.2148 7.84961C98.8561 7.84961 99.4616 7.96191 100.031 8.18652C100.604 8.41113 101.102 8.72526 101.525 9.12891C101.949 9.5293 102.282 10.0241 102.526 10.6133C102.774 11.2025 102.897 11.8438 102.897 12.5371C102.897 13.2305 102.774 13.8717 102.526 14.4609C102.282 15.0501 101.949 15.5465 101.525 15.9502C101.102 16.3506 100.604 16.6631 100.031 16.8877C99.4616 17.1123 98.8561 17.2246 98.2148 17.2246C97.5736 17.2246 96.9665 17.1123 96.3936 16.8877C95.8239 16.6631 95.3275 16.3506 94.9043 15.9502C94.4844 15.5465 94.1507 15.0501 93.9033 14.4609C93.6592 13.8717 93.5371 13.2305 93.5371 12.5371C93.5371 11.8438 93.6592 11.2025 93.9033 10.6133C94.1507 10.0241 94.4844 9.5293 94.9043 9.12891C95.3275 8.72526 95.8239 8.41113 96.3936 8.18652ZM98.2148 9.41211C97.987 9.41211 97.7835 9.44466 97.6045 9.50977C97.4255 9.57487 97.2611 9.68229 97.1113 9.83203C96.9616 9.98177 96.8379 10.1755 96.7402 10.4131C96.6458 10.6507 96.571 10.9469 96.5156 11.3018C96.4635 11.6566 96.4375 12.0684 96.4375 12.5371C96.4375 13.0059 96.4635 13.4176 96.5156 13.7725C96.571 14.1273 96.6458 14.4235 96.7402 14.6611C96.8379 14.8988 96.9616 15.0924 97.1113 15.2422C97.2611 15.3919 97.4255 15.4993 97.6045 15.5645C97.7835 15.6296 97.987 15.6621 98.2148 15.6621C98.5013 15.6621 98.7503 15.6084 98.9619 15.501C99.1735 15.3903 99.3574 15.2145 99.5137 14.9736C99.6732 14.7327 99.792 14.4089 99.8701 14.002C99.9515 13.5951 99.9922 13.1068 99.9922 12.5371C99.9922 11.9674 99.9515 11.4792 99.8701 11.0723C99.792 10.6654 99.6732 10.3415 99.5137 10.1006C99.3574 9.8597 99.1735 9.68555 98.9619 9.57812C98.7503 9.46745 98.5013 9.41211 98.2148 9.41211ZM108.654 11.5312C108.892 11.5312 109.089 11.5085 109.245 11.4629C109.405 11.4173 109.525 11.349 109.606 11.2578C109.691 11.1667 109.748 11.0674 109.777 10.96C109.81 10.8493 109.826 10.7142 109.826 10.5547C109.826 10.3952 109.81 10.2617 109.777 10.1543C109.748 10.0436 109.691 9.94271 109.606 9.85156C109.525 9.76042 109.405 9.69206 109.245 9.64648C109.089 9.60091 108.892 9.57812 108.654 9.57812H107.512L107.502 11.5312H108.654ZM111.53 12.2686C111.833 12.3239 112.093 12.4004 112.312 12.498C112.53 12.5957 112.717 12.7227 112.873 12.8789C113.033 13.0352 113.15 13.2288 113.225 13.46C113.303 13.6878 113.342 13.9564 113.342 14.2656C113.342 14.7441 113.26 15.1608 113.098 15.5156C112.935 15.8672 112.697 16.1504 112.385 16.3652C112.076 16.5801 111.708 16.7396 111.281 16.8438C110.858 16.9479 110.373 17 109.826 17H103.771V15.4375H104.748V9.57812H103.771V8.01562H109.436C109.895 8.01562 110.293 8.03516 110.632 8.07422C110.97 8.11003 111.291 8.17839 111.594 8.2793C111.9 8.38021 112.147 8.51693 112.336 8.68945C112.528 8.86198 112.678 9.08822 112.785 9.36816C112.896 9.64486 112.951 9.97526 112.951 10.3594C112.951 10.8932 112.834 11.3115 112.6 11.6143C112.365 11.9137 112.009 12.1318 111.53 12.2686ZM107.482 15.4375H109.045C109.279 15.4375 109.476 15.4049 109.636 15.3398C109.799 15.2747 109.919 15.1836 109.997 15.0664C110.078 14.9492 110.135 14.8271 110.168 14.7002C110.201 14.5732 110.217 14.4284 110.217 14.2656C110.217 14.1029 110.201 13.958 110.168 13.8311C110.135 13.7041 110.078 13.582 109.997 13.4648C109.919 13.3477 109.799 13.2565 109.636 13.1914C109.476 13.1263 109.279 13.0938 109.045 13.0938H107.492L107.482 15.4375ZM114.123 9.57812V8.01562H118.811V9.57812H117.858L117.849 11.5312H118.811C120.275 11.5312 121.325 11.7428 121.96 12.166C122.595 12.5892 122.912 13.2891 122.912 14.2656C122.912 15.2422 122.595 15.9421 121.96 16.3652C121.325 16.7884 120.275 17 118.811 17H114.123V15.4375H115.1V9.57812H114.123ZM127.648 17H123.205V15.4375H123.938V9.57812H122.961V8.01562H127.648V9.57812H126.672V15.4375H127.648V17ZM117.844 13.0938L117.834 15.4375H118.811C119.462 15.4375 119.787 15.0469 119.787 14.2656C119.787 13.4844 119.462 13.0938 118.811 13.0938H117.844ZM133.117 17.2539C132.476 17.2539 131.869 17.1416 131.296 16.917C130.726 16.6924 130.23 16.3799 129.807 15.9795C129.387 15.5758 129.053 15.0794 128.806 14.4902C128.562 13.901 128.439 13.2598 128.439 12.5664C128.439 11.873 128.562 11.2285 128.806 10.6328C129.053 10.0371 129.387 9.53581 129.807 9.12891C130.23 8.71875 130.726 8.39811 131.296 8.16699C131.869 7.93587 132.476 7.82031 133.117 7.82031C133.758 7.82031 134.364 7.93587 134.934 8.16699C135.507 8.39811 136.003 8.71875 136.423 9.12891C136.846 9.53581 137.18 10.0371 137.424 10.6328C137.671 11.2285 137.795 11.873 137.795 12.5664L137.673 13.0938H131.359C131.389 13.4714 131.451 13.8083 131.545 14.1045C131.639 14.4007 131.753 14.6432 131.887 14.832C132.023 15.0208 132.181 15.1771 132.36 15.3008C132.539 15.4212 132.723 15.5075 132.912 15.5596C133.101 15.6084 133.303 15.6328 133.518 15.6328C134.204 15.6328 134.74 15.501 135.124 15.2373C135.511 14.9704 135.821 14.5602 136.052 14.0068L137.351 14.4561C137.233 14.7718 137.084 15.0697 136.901 15.3496C136.722 15.6263 136.506 15.8818 136.252 16.1162C135.998 16.3506 135.715 16.5524 135.402 16.7217C135.093 16.8877 134.743 17.0179 134.353 17.1123C133.962 17.2067 133.55 17.2539 133.117 17.2539ZM131.394 11.5312H134.841C134.756 10.7826 134.569 10.2373 134.279 9.89551C133.99 9.55371 133.605 9.38281 133.127 9.38281C132.889 9.38281 132.676 9.42188 132.487 9.5C132.299 9.57487 132.129 9.69694 131.979 9.86621C131.83 10.0322 131.704 10.2552 131.604 10.5352C131.506 10.8118 131.436 11.1439 131.394 11.5312Z" fill="#D7DDD7"/>
<path d="M57.3848 30.8906H68.7129V34.7969H66.9551V34.0156C66.9551 33.8561 66.9404 33.6917 66.9111 33.5225C66.8851 33.3532 66.8428 33.1855 66.7842 33.0195C66.7288 32.8535 66.6475 32.7184 66.54 32.6143C66.4326 32.5068 66.3105 32.4531 66.1738 32.4531H64.6113V41.4375H66.1738V43H59.9238V41.4375H61.4863V32.4531H59.9238C59.7871 32.4531 59.665 32.5068 59.5576 32.6143C59.4502 32.7184 59.3672 32.8535 59.3086 33.0195C59.2533 33.1855 59.2109 33.3532 59.1816 33.5225C59.1556 33.6917 59.1426 33.8561 59.1426 34.0156V34.7969H57.3848V30.8906ZM76.1494 33.791C76.9111 33.791 77.5573 33.9863 78.0879 34.377C78.6185 34.7676 79.0124 35.3128 79.2695 36.0127C79.5299 36.7126 79.6602 37.5459 79.6602 38.5127C79.6602 39.2191 79.5674 39.8652 79.3818 40.4512C79.1995 41.0371 78.9424 41.5319 78.6104 41.9355C78.2816 42.3359 77.8828 42.6468 77.4141 42.8682C76.9486 43.0863 76.4375 43.1953 75.8809 43.1953C75.6009 43.1953 75.3372 43.1693 75.0898 43.1172C74.8424 43.0684 74.6309 43.0065 74.4551 42.9316C74.2826 42.8568 74.1182 42.764 73.9619 42.6533C73.8057 42.5426 73.6787 42.4385 73.5811 42.3408C73.4867 42.2432 73.3939 42.1341 73.3027 42.0137V44.5625H74.2793V46.125H69.5918V44.5625H70.5684V35.5781H69.5918V34.0156H72.4922L73.083 35.1533C73.21 34.9743 73.3548 34.8115 73.5176 34.665C74.1621 34.0824 75.0394 33.791 76.1494 33.791ZM73.3027 40.3584C73.6738 41.042 74.1784 41.3838 74.8164 41.3838C75.4609 41.3838 75.9395 41.1315 76.252 40.627C76.5677 40.1224 76.7256 39.4062 76.7256 38.4785C76.7256 38.0423 76.6735 37.6403 76.5693 37.2725C76.4684 36.9014 76.3317 36.5938 76.1592 36.3496C75.9899 36.1055 75.7946 35.9167 75.5732 35.7832C75.3519 35.6465 75.1208 35.5781 74.8799 35.5781C74.5544 35.5781 74.2646 35.6693 74.0107 35.8516C73.7601 36.0306 73.5241 36.2975 73.3027 36.6523V40.3584ZM89.0449 37.1162V41.4375H90.0215V43H86.9795L86.5449 41.9844C86.2129 42.4596 85.8271 42.7852 85.3877 42.9609C84.9515 43.1367 84.3411 43.2246 83.5566 43.2246C83.1497 43.2246 82.7705 43.153 82.4189 43.0098C82.0706 42.8698 81.7728 42.6777 81.5254 42.4336C81.2812 42.1895 81.0892 41.8965 80.9492 41.5547C80.8125 41.2129 80.7441 40.8467 80.7441 40.4561C80.7441 39.7822 81.0078 39.224 81.5352 38.7812C82.0625 38.3353 82.7363 38.1123 83.5566 38.1123C84.2174 38.1123 84.7643 38.1758 85.1973 38.3027C85.6302 38.4264 86.0013 38.625 86.3105 38.8984V36.8281C86.3105 36.5352 86.2699 36.291 86.1885 36.0957C86.1104 35.8971 85.9915 35.7458 85.832 35.6416C85.6725 35.5342 85.4935 35.4593 85.2949 35.417C85.0964 35.3747 84.8587 35.3535 84.582 35.3535C84.3607 35.3535 84.1605 35.4007 83.9814 35.4951C84.0824 35.7067 84.1328 35.9297 84.1328 36.1641C84.1328 36.597 83.9798 36.9665 83.6738 37.2725C83.3711 37.5752 83.0033 37.7266 82.5703 37.7266C82.1374 37.7266 81.7679 37.5752 81.4619 37.2725C81.1592 36.9665 81.0078 36.597 81.0078 36.1641C81.0078 35.9427 81.0501 35.7344 81.1348 35.5391C81.2227 35.3438 81.3431 35.1729 81.4961 35.0264C81.6263 34.8896 81.7614 34.7676 81.9014 34.6602C82.0413 34.5495 82.2171 34.4404 82.4287 34.333C82.6436 34.2223 82.8763 34.1312 83.127 34.0596C83.3776 33.988 83.6771 33.931 84.0254 33.8887C84.377 33.8431 84.7611 33.8203 85.1777 33.8203C85.7181 33.8203 86.2259 33.9001 86.7012 34.0596C87.1764 34.2191 87.5866 34.4404 87.9316 34.7236C88.2767 35.0068 88.5485 35.3551 88.7471 35.7686C88.9456 36.182 89.0449 36.6312 89.0449 37.1162ZM86.3105 40.832V40.1582C86.1087 39.9661 85.8809 39.805 85.627 39.6748C85.3763 39.5413 85.1436 39.4746 84.9287 39.4746C84.4665 39.4746 84.141 39.5527 83.9521 39.709C83.7633 39.862 83.6689 40.111 83.6689 40.4561C83.6689 40.8695 83.7503 41.1738 83.9131 41.3691C84.0758 41.5645 84.3786 41.6621 84.8213 41.6621C85.0719 41.6621 85.3324 41.5824 85.6025 41.4229C85.876 41.2601 86.112 41.0632 86.3105 40.832ZM91.4863 35.5781V34.0156H99.7383V41.4375H100.715V45.3438H99.1523V43H92.3164V45.3438H90.7539V41.4375H91.2422C91.61 40.9069 91.8639 40.3161 92.0039 39.665C92.1471 39.0107 92.2188 38.2344 92.2188 37.3359V35.5781H91.4863ZM93.9229 41.4375H97.0039V35.5781H94.7578V37.3359C94.7578 39.1556 94.4795 40.5228 93.9229 41.4375ZM107.111 43V41.4375H108.088V37.7021L105.031 43H101.447V41.4375H102.424V35.5781H101.447V34.0156H106.135V35.5781H105.158V39.6504L108.41 34.0156H111.799V35.5781H110.822V41.4375H111.799V43H107.111ZM118.342 35.5781V34.0156H123.029V35.5781H122.053V41.457C122.316 41.4961 122.549 41.5889 122.751 41.7354C122.956 41.8786 123.12 42.0609 123.244 42.2822C123.368 42.5003 123.461 42.7428 123.522 43.0098C123.584 43.2767 123.615 43.5632 123.615 43.8691C123.615 44.263 123.542 44.6357 123.396 44.9873C123.249 45.3421 123.052 45.6449 122.805 45.8955C122.561 46.1462 122.271 46.3447 121.936 46.4912C121.6 46.6377 121.249 46.7109 120.881 46.7109C120.197 46.7109 119.628 46.6035 119.172 46.3887C118.719 46.1738 118.264 45.8092 117.805 45.2949C117.616 45.0833 117.479 44.932 117.395 44.8408C117.313 44.7529 117.215 44.6536 117.102 44.543C116.988 44.4355 116.895 44.3623 116.823 44.3232C116.755 44.2874 116.688 44.2695 116.623 44.2695C116.59 44.2695 116.561 44.2712 116.535 44.2744C116.815 44.5739 116.955 44.9303 116.955 45.3438C116.955 45.7767 116.802 46.1445 116.496 46.4473C116.193 46.7533 115.826 46.9062 115.393 46.9062C114.96 46.9062 114.59 46.7533 114.284 46.4473C113.981 46.1445 113.83 45.7767 113.83 45.3438C113.83 45.1484 113.858 44.9596 113.913 44.7773C113.972 44.5983 114.079 44.416 114.235 44.2305C114.395 44.0449 114.597 43.8854 114.841 43.752C115.085 43.6185 115.41 43.5078 115.817 43.4199C116.228 43.3353 116.695 43.293 117.219 43.293C118.124 43.293 118.825 43.3548 119.323 43.4785C119.825 43.6022 120.285 43.8317 120.705 44.167C120.725 44.1833 120.769 44.2174 120.837 44.2695C120.905 44.3249 120.948 44.359 120.964 44.3721C120.98 44.3851 121.014 44.4111 121.066 44.4502C121.122 44.4893 121.161 44.5137 121.184 44.5234C121.21 44.5332 121.244 44.5479 121.286 44.5674C121.328 44.5869 121.369 44.5983 121.408 44.6016C121.447 44.6081 121.488 44.6113 121.53 44.6113C121.709 44.6113 121.857 44.5316 121.975 44.3721C122.092 44.2158 122.15 44.0352 122.15 43.8301C122.15 43.599 122.059 43.402 121.877 43.2393C121.698 43.0798 121.496 43 121.271 43H112.678V41.4375H113.654V35.5781H112.678V34.0156H117.365V35.5781H116.389V41.4375H119.318V35.5781H118.342ZM129.963 43V41.4375H130.939V37.7021L127.883 43H124.299V41.4375H125.275V35.5781H124.299V34.0156H128.986V35.5781H128.01V39.6504L131.262 34.0156H134.65V35.5781H133.674V41.4375H134.65V43H129.963ZM141.291 43V41.4375H142.268V37.7021L139.211 43H135.627V41.4375H136.604V35.5781H135.627V34.0156H140.314V35.5781H139.338V39.6504L142.59 34.0156H145.979V35.5781H145.002V41.4375H145.979V43H141.291Z" fill="#D7DDD7"/>
</svg>
